# File created by Blade
# Date/Time:  Tue Apr 07 20:13:55 2015
# Frame Rate: 120.000 fps
#------------------------------------------------------
:FULLY-SPECIFIED
:DEGREES
4575
root 2.520528 33.157547 -8.469084 12.359980 2.559484 0.093611
Spine -14.253032 -6.751038 -0.569923
Head 8.333976 -1.916296 -0.843523
LeftShoulder -22.933438 43.608673 18.739585
LeftArm 51.671391 -57.926591 -57.316379
LeftForeArm 0.851606 -0.000000 8.640000
LeftHand 8.443094 -0.000000 14.248124
LeftHandThumb1 -26.253704 0.000000 33.147579
RightShoulder -8.519220 1.571634 -30.353388
RightArm 11.260708 10.597275 34.062319
RightForeArm -4.733474 -0.000000 8.373359
RightHand 5.223529 0.000000 -2.828849
RightHandThumb1 -24.326973 -0.000000 -32.862282
LeftUpLeg -7.006368 0.201524 -3.284595
LeftLeg -0.302252 -0.000000 0.000000
LeftFoot -1.390683 1.752594 -19.983477
LeftToeBase -5.634961 -0.000000 0.000000
RightUpLeg -9.599231 -1.528754 1.377660
RightLeg 3.968728 -0.000000 -0.000000
RightFoot -7.380859 -2.728495 4.242609
RightToeBase -1.142344 -0.000000 0.000000
4576
root 2.524383 33.176788 -8.457724 12.477745 2.654748 0.014142
Spine -14.465878 -6.681614 -0.438426
Head 8.441987 -1.976763 -0.814484
LeftShoulder -22.930113 43.481721 18.937501
LeftArm 51.790182 -58.152439 -57.131237
LeftForeArm 1.307675 0.000000 8.676514
LeftHand 8.270478 -0.000000 14.513048
LeftHandThumb1 -26.253704 0.000000 33.147579
RightShoulder -8.659253 1.822365 -30.567280
RightArm 11.087547 10.684908 33.697187
RightForeArm -5.102468 0.000000 8.229354
RightHand 5.089800 -0.000000 -3.182498
RightHandThumb1 -24.326973 -0.000000 -32.862282
LeftUpLeg -7.036990 0.241565 -3.177159
LeftLeg -0.475934 -0.000000 0.000000
LeftFoot -1.131452 1.593544 -20.201593
LeftToeBase -5.597484 -0.000000 0.000000
RightUpLeg -9.571879 -1.555491 1.513046
RightLeg 3.713026 -0.000000 -0.000000
RightFoot -7.249217 -2.669311 4.437384
RightToeBase -0.279319 -0.000000 0.000000
4577
root 2.526606 33.193721 -8.448693 12.616008 2.752997 -0.081224
Spine -14.720121 -6.640290 -0.275651
Head 8.580701 -2.007375 -0.790984
LeftShoulder -22.911078 43.366291 19.114184
LeftArm 51.593614 -58.229385 -56.646313
LeftForeArm 1.349254 -0.000000 8.767453
LeftHand 8.284935 -0.000000 14.698842
LeftHandThumb1 -26.253704 0.000000 33.147579
RightShoulder -8.750324 1.931602 -30.732921
RightArm 11.014097 10.848662 33.381142
RightForeArm -5.508691 -0.000000 8.050612
RightHand 4.962580 -0.000000 -3.321746
RightHandThumb1 -24.326973 -0.000000 -32.862282
LeftUpLeg -7.108527 0.322580 -3.067315
LeftLeg -0.607334 -0.000000 0.000000
LeftFoot -0.922825 1.480643 -20.337296
LeftToeBase -5.899357 -0.000000 0.000000
RightUpLeg -9.553331 -1.526569 1.655100
RightLeg 3.458570 -0.000000 -0.000000
RightFoot -7.427262 -2.401971 5.234427
RightToeBase 1.652703 -0.000000 -0.000000
4578
root 2.528312 33.205607 -8.441097 12.752097 2.861248 -0.144977
Spine -14.957841 -6.626396 -0.155289
Head 8.673936 -2.019951 -0.723385
LeftShoulder -22.882016 43.237605 19.283133
LeftArm 51.488137 -58.354777 -56.294343
LeftForeArm 1.725993 0.000000 8.803399
LeftHand 8.405336 0.000000 14.462686
LeftHandThumb1 -26.253704 0.000000 33.147579
RightShoulder -8.844919 1.998463 -30.860058
RightArm 11.021638 10.984823 33.122307
RightForeArm -5.839755 -0.000000 7.831102
RightHand 4.663740 -0.000000 -3.054657
RightHandThumb1 -24.326973 -0.000000 -32.862282
LeftUpLeg -7.170962 0.374704 -2.996791
LeftLeg -0.754723 -0.000000 0.000000
LeftFoot -0.745767 1.385227 -20.363608
LeftToeBase -5.841792 -0.000000 0.000000
RightUpLeg -9.554128 -1.601441 1.786703
RightLeg 3.210217 -0.000000 -0.000000
RightFoot -7.294930 -2.522328 5.289674
RightToeBase 2.174599 -0.000000 -0.000000
4579
root 2.529201 33.212598 -8.435499 12.872967 2.967498 -0.196899
Spine -15.169949 -6.626202 -0.061993
Head 8.756410 -2.045882 -0.626211
LeftShoulder -22.869897 43.107561 19.435544
LeftArm 51.246699 -58.290852 -55.710253
LeftForeArm 2.060265 -0.000000 8.768680
LeftHand 8.019235 -0.000000 14.570963
LeftHandThumb1 -26.253704 0.000000 33.147579
RightShoulder -8.926078 2.116429 -30.961676
RightArm 10.990781 11.061660 32.905511
RightForeArm -6.112708 0.000000 7.618811
RightHand 4.566204 -0.000000 -3.004329
RightHandThumb1 -24.326973 -0.000000 -32.862282
LeftUpLeg -7.227357 0.398090 -2.946064
LeftLeg -0.877131 -0.000000 0.000000
LeftFoot -0.689758 1.348097 -20.385215
LeftToeBase -5.722505 -0.000000 0.000000
RightUpLeg -9.533351 -1.706555 1.918429
RightLeg 2.941884 -0.000000 -0.000000
RightFoot -7.131256 -2.689607 5.242157
RightToeBase 2.392471 -0.000000 -0.000000
4580
root 2.527150 33.213943 -8.433325 12.995333 3.097010 -0.253867
Spine -15.369949 -6.643707 0.032358
Head 8.804682 -2.074416 -0.517406
LeftShoulder -22.829833 42.993455 19.582879
LeftArm 51.059320 -58.263019 -55.207123
LeftForeArm 2.343604 0.000000 8.633901
LeftHand 8.017947 -0.000000 14.279373
LeftHandThumb1 -26.253704 0.000000 33.147579
RightShoulder -9.019164 2.188990 -31.050889
RightArm 11.013920 11.115996 32.772663
RightForeArm -6.262285 0.000000 7.384461
RightHand 4.477193 -0.000000 -2.920308
RightHandThumb1 -24.326973 -0.000000 -32.862282
LeftUpLeg -7.307592 0.342146 -2.883990
LeftLeg -0.953408 -0.000000 0.000000
LeftFoot -0.741953 1.377576 -20.302301
LeftToeBase -5.639198 -0.000000 0.000000
RightUpLeg -9.511539 -1.795854 2.058156
RightLeg 2.659405 -0.000000 -0.000000
RightFoot -7.008939 -2.956807 5.145454
RightToeBase 2.618494 -0.000000 -0.000000
4581
root 2.522064 33.209401 -8.433111 13.094901 3.250860 -0.347152
Spine -15.536877 -6.700655 0.169298
Head 8.819931 -2.098037 -0.403774
LeftShoulder -22.811602 42.863872 19.704853
LeftArm 50.837939 -58.149598 -54.631018
LeftForeArm 2.694240 -0.000000 8.369529
LeftHand 7.887402 -0.000000 13.824391
LeftHandThumb1 -26.253704 0.000000 33.147579
RightShoulder -9.071287 2.286544 -31.111904
RightArm 11.017505 11.187069 32.674568
RightForeArm -6.456848 0.000000 7.150800
RightHand 4.338789 -0.000000 -2.733473
RightHandThumb1 -24.326973 -0.000000 -32.862282
LeftUpLeg -7.394389 0.276866 -2.784190
LeftLeg -0.973192 -0.000000 0.000000
LeftFoot -0.916899 1.393543 -20.207785
LeftToeBase -5.496549 -0.000000 0.000000
RightUpLeg -9.485472 -1.966156 2.247488
RightLeg 2.394732 -0.000000 -0.000000
RightFoot -7.002218 -3.008425 5.315868
RightToeBase 3.134441 -0.000000 -0.000000
4582
root 2.517061 33.197029 -8.435286 13.163467 3.414521 -0.435800
Spine -15.655182 -6.787921 0.308564
Head 8.794426 -2.131216 -0.305203
LeftShoulder -22.747339 42.699763 19.820377
LeftArm 50.459706 -57.999153 -53.907674
LeftForeArm 3.069636 -0.000000 8.015573
LeftHand 7.804731 -0.000000 13.617502
LeftHandThumb1 -26.253704 0.000000 33.147579
RightShoulder -9.100652 2.430025 -31.181229
RightArm 11.009947 11.246179 32.649645
RightForeArm -6.755761 -0.000000 6.911870
RightHand 4.197252 -0.000000 -2.558630
RightHandThumb1 -24.326973 -0.000000 -32.862282
LeftUpLeg -7.471137 0.183364 -2.693481
LeftLeg -0.949701 -0.000000 0.000000
LeftFoot -1.220146 1.459310 -20.016560
LeftToeBase -5.379881 -0.000000 0.000000
RightUpLeg -9.446583 -2.168936 2.425261
RightLeg 2.185924 -0.000000 -0.000000
RightFoot -6.938486 -3.255435 5.139480
RightToeBase 3.053241 -0.000000 -0.000000
4583
root 2.509305 33.177943 -8.439945 13.204655 3.582145 -0.567421
Spine -15.733227 -6.867278 0.488448
Head 8.740893 -2.159634 -0.218775
LeftShoulder -22.655011 42.582930 19.945758
LeftArm 50.190830 -57.864544 -53.347309
LeftForeArm 3.290303 -0.000000 7.580818
LeftHand 7.724975 0.000000 13.253596
LeftHandThumb1 -26.253704 0.000000 33.147579
RightShoulder -9.118704 2.508111 -31.228183
RightArm 11.027735 11.365263 32.680362
RightForeArm -6.941658 -0.000000 6.672011
RightHand 4.049713 -0.000000 -2.370888
RightHandThumb1 -24.326973 -0.000000 -32.862282
LeftUpLeg -7.533336 0.017165 -2.552356
LeftLeg -0.908470 -0.000000 0.000000
LeftFoot -1.670410 1.596272 -19.824097
LeftToeBase -5.062527 -0.000000 0.000000
RightUpLeg -9.380993 -2.367976 2.649293
RightLeg 1.941582 -0.000000 -0.000000
RightFoot -7.097622 -3.213976 5.374382
RightToeBase 3.764610 -0.000000 -0.000000
4584
root 2.500176 33.150647 -8.445887 13.219001 3.743276 -0.663211
Spine -15.771093 -6.953353 0.606756
Head 8.671469 -2.209370 -0.112212
LeftShoulder -22.538940 42.479828 20.074732
LeftArm 49.966211 -57.738798 -52.828645
LeftForeArm 3.448770 -0.000000 7.084615
LeftHand 7.527829 -0.000000 12.869530
LeftHandThumb1 -26.253704 0.000000 33.147579
RightShoulder -9.120963 2.587545 -31.232859
RightArm 11.033533 11.500387 32.724049
RightForeArm -7.048880 -0.000000 6.425539
RightHand 4.055364 -0.000000 -2.261576
RightHandThumb1 -24.326973 -0.000000 -32.862282
LeftUpLeg -7.633887 0.000786 -2.492947
LeftLeg -0.711949 -0.000000 0.000000
LeftFoot -2.192876 1.687491 -19.319269
LeftToeBase -5.189512 -0.000000 0.000000
RightUpLeg -9.266436 -2.472585 2.804172
RightLeg 1.642294 -0.000000 -0.000000
RightFoot -7.133753 -3.502815 5.254895
RightToeBase 3.696369 -0.000000 -0.000000
